<svg xmlns="http://www.w3.org/2000/svg" width="1200" height="800" viewBox="0 0 1200 800" fill="none"><path d="M138.461 526.368V269.714C143.675 269.714 148.154 273.24 154.322 279.808L253.091 378.576L351.858 279.807C357.29 274.175 361.677 269.715 368.441 269.715V526.369H315.091V403.808L253.09 465.088L191.955 403.808L191.811 526.368H138.461ZM506.992 269.714C501.537 269.714 500.161 273.634 496.046 282.692L390.355 526.368H447.309L458.701 497.53H544.925L556.317 526.367H623.218L517.673 282.692C513.478 273.502 511.215 269.714 506.993 269.714H506.992ZM501.814 391.987L526.613 452.832H477.015L501.814 391.987ZM645.28 272.598V526.368H705.839V431.204H720.977C746.5 431.204 756.857 439.998 765.642 463.469C776.129 491.235 779.846 510.398 782.979 526.367H851.408L830.561 465.809C822.21 441.314 811.404 421.9 791.63 408.694C807.751 401.937 826.339 379.017 826.339 347.753C826.339 298.642 787.679 272.598 738.28 272.598H645.28ZM705.839 317.296H723.862C752.173 317.296 764.95 330.524 764.95 351.588C764.95 372.344 750.457 385.064 728.188 385.064H705.839V317.296ZM959.941 484.587C985.39 484.587 995.62 470.684 995.62 458.584C995.62 413.715 872.516 434.515 872.516 345.822C872.516 318.169 895.778 267.576 965.673 267.576C1007.4 267.576 1038.35 288.374 1051.64 302.38L1016.66 339.067C1003.68 325.712 986.971 314.332 962.571 314.332C944.703 314.332 934.367 322.935 934.367 337.831C934.366 378.992 1061.54 363.244 1061.54 450.819C1061.54 489.836 1033.5 532.424 962.051 532.424C912.232 532.424 881.955 511.865 864.81 491.128L900.048 453.98C913.253 469.671 929.335 484.587 959.941 484.587V484.587Z" fill="white"></path></svg>